<svg width="128" height="128" viewBox="0 0 128 128" fill="none" xmlns="http://www.w3.org/2000/svg">
<path d="M0 32C0 14.3269 14.3269 0 32 0H96C113.673 0 128 14.3269 128 32V96C128 113.673 113.673 128 96 128H32C14.3269 128 0 113.673 0 96V32Z" fill="#805AD5"/>
<path d="M23.875 94.0238V91.5941H36.6406V94.0238H31.6953V107.594H28.8203V94.0238H23.875Z" fill="white"/>
<path d="M40.0781 107.594L36.6875 95.5941H39.5703L41.6797 104.032H41.7891L43.9453 95.5941H46.7969L48.9531 103.985H49.0703L51.1484 95.5941H54.0391L50.6406 107.594H47.6953L45.4453 99.4847H45.2812L43.0312 107.594H40.0781Z" fill="white"/>
<path d="M60.9824 107.828C59.7793 107.828 58.7402 107.578 57.8652 107.078C56.9954 106.573 56.3262 105.86 55.8574 104.938C55.3887 104.011 55.1543 102.92 55.1543 101.664C55.1543 100.43 55.3887 99.3467 55.8574 98.4144C56.3314 97.4769 56.9928 96.7478 57.8418 96.2269C58.6908 95.7009 59.6882 95.4379 60.834 95.4379C61.5736 95.4379 62.2715 95.5577 62.9277 95.7972C63.5892 96.0316 64.1725 96.3962 64.6777 96.891C65.1881 97.3858 65.5892 98.016 65.8809 98.7816C66.1725 99.542 66.3184 100.448 66.3184 101.5V102.368H56.4824V100.461H63.6074C63.6022 99.9196 63.485 99.4379 63.2559 99.016C63.0267 98.5889 62.7064 98.253 62.2949 98.0082C61.8887 97.7634 61.4147 97.641 60.873 97.641C60.2949 97.641 59.7871 97.7816 59.3496 98.0629C58.9121 98.3389 58.571 98.7035 58.3262 99.1566C58.0866 99.6045 57.9642 100.097 57.959 100.633V102.297C57.959 102.995 58.0866 103.594 58.3418 104.094C58.597 104.589 58.9538 104.969 59.4121 105.235C59.8704 105.495 60.4069 105.625 61.0215 105.625C61.4329 105.625 61.8053 105.568 62.1387 105.453C62.472 105.334 62.7611 105.159 63.0059 104.93C63.2507 104.701 63.4355 104.417 63.5605 104.078L66.2012 104.375C66.0345 105.073 65.7168 105.683 65.248 106.203C64.7845 106.719 64.1908 107.12 63.4668 107.407C62.7428 107.688 61.9147 107.828 60.9824 107.828Z" fill="white"/>
<path d="M72.1641 107.836C71.4036 107.836 70.7188 107.701 70.1094 107.43C69.5052 107.154 69.026 106.748 68.6719 106.211C68.3229 105.675 68.1484 105.013 68.1484 104.227C68.1484 103.55 68.2734 102.99 68.5234 102.547C68.7734 102.105 69.1146 101.75 69.5469 101.485C69.9792 101.219 70.4661 101.019 71.0078 100.883C71.5547 100.743 72.1198 100.641 72.7031 100.578C73.4062 100.506 73.9766 100.44 74.4141 100.383C74.8516 100.321 75.1693 100.227 75.3672 100.102C75.5703 99.9717 75.6719 99.7712 75.6719 99.5004V99.4535C75.6719 98.865 75.4974 98.4092 75.1484 98.0863C74.7995 97.7634 74.2969 97.6019 73.6406 97.6019C72.9479 97.6019 72.3984 97.753 71.9922 98.0551C71.5911 98.3571 71.3203 98.7139 71.1797 99.1254L68.5391 98.7504C68.7474 98.0212 69.0911 97.4118 69.5703 96.9222C70.0495 96.4275 70.6354 96.0577 71.3281 95.8129C72.0208 95.5629 72.7865 95.4379 73.625 95.4379C74.2031 95.4379 74.7786 95.5056 75.3516 95.641C75.9245 95.7764 76.4479 96.0004 76.9219 96.3129C77.3958 96.6202 77.776 97.0394 78.0625 97.5707C78.3542 98.1019 78.5 98.766 78.5 99.5629V107.594H75.7812V105.946H75.6875C75.5156 106.279 75.2734 106.592 74.9609 106.883C74.6536 107.17 74.2656 107.401 73.7969 107.578C73.3333 107.75 72.7891 107.836 72.1641 107.836ZM72.8984 105.758C73.4661 105.758 73.9583 105.646 74.375 105.422C74.7917 105.193 75.112 104.891 75.3359 104.516C75.5651 104.141 75.6797 103.732 75.6797 103.289V101.875C75.5911 101.948 75.4401 102.016 75.2266 102.078C75.0182 102.141 74.7839 102.196 74.5234 102.243C74.263 102.289 74.0052 102.331 73.75 102.368C73.4948 102.404 73.2734 102.435 73.0859 102.461C72.6641 102.519 72.2865 102.612 71.9531 102.743C71.6198 102.873 71.3568 103.055 71.1641 103.289C70.9714 103.519 70.875 103.815 70.875 104.18C70.875 104.701 71.0651 105.094 71.4453 105.36C71.8255 105.625 72.3099 105.758 72.8984 105.758Z" fill="white"/>
<path d="M83.9219 103.828L83.9141 100.414H84.3672L88.6797 95.5941H91.9844L86.6797 101.5H86.0938L83.9219 103.828ZM81.3438 107.594V91.5941H84.1719V107.594H81.3438ZM88.875 107.594L84.9688 102.133L86.875 100.141L92.2578 107.594H88.875Z" fill="white"/>
<path d="M103.354 98.766L100.775 99.0472C100.702 98.7868 100.575 98.542 100.393 98.3129C100.215 98.0837 99.9759 97.8988 99.6738 97.7582C99.3717 97.6176 99.002 97.5472 98.5645 97.5472C97.9759 97.5472 97.4811 97.6748 97.0801 97.9301C96.6842 98.1853 96.4889 98.516 96.4941 98.9222C96.4889 99.2712 96.6165 99.5551 96.877 99.7738C97.1426 99.9926 97.5801 100.172 98.1895 100.313L100.236 100.75C101.372 100.995 102.215 101.383 102.768 101.914C103.325 102.446 103.606 103.141 103.611 104C103.606 104.756 103.385 105.422 102.947 106C102.515 106.573 101.913 107.021 101.143 107.344C100.372 107.667 99.4863 107.828 98.4863 107.828C97.0176 107.828 95.8353 107.521 94.9395 106.907C94.0436 106.287 93.5098 105.425 93.3379 104.321L96.0957 104.055C96.2207 104.597 96.4863 105.006 96.8926 105.282C97.2988 105.558 97.8275 105.696 98.4785 105.696C99.1504 105.696 99.6895 105.558 100.096 105.282C100.507 105.006 100.713 104.664 100.713 104.258C100.713 103.914 100.58 103.631 100.314 103.407C100.054 103.183 99.6478 103.011 99.0957 102.891L97.0488 102.461C95.8978 102.222 95.0462 101.818 94.4941 101.25C93.9421 100.677 93.6686 99.9535 93.6738 99.0785C93.6686 98.3389 93.8691 97.6983 94.2754 97.1566C94.6869 96.6097 95.2572 96.1879 95.9863 95.891C96.7207 95.5889 97.5671 95.4379 98.5254 95.4379C99.9316 95.4379 101.038 95.7373 101.846 96.3363C102.658 96.9353 103.161 97.7452 103.354 98.766Z" fill="white"/>
<path d="M28.8391 81.6481L61.6034 16.4089C61.7288 16.1593 61.9963 16 62.2908 16H63.7275C64.0181 16 64.2833 16.1555 64.4106 16.4006L85.5479 57.1123L92.1751 54.7227C92.5666 54.5814 93.0064 54.7646 93.1569 55.1318L94.9208 59.4312C95.0716 59.7985 94.8761 60.2106 94.4844 60.3519L88.3738 62.5554L95.9133 77.0767C96.0968 77.4304 95.9398 77.8567 95.5626 78.029L91.1444 80.045C90.7671 80.2173 90.3124 80.0699 90.1287 79.7162L82.3473 64.7285L30.1603 83.5464C29.7686 83.6878 29.329 83.5046 29.1784 83.1373L29.1736 83.1253L28.8125 82.1953C28.7433 82.017 28.7528 81.82 28.8391 81.6481ZM63.0821 27.6228L40.0289 73.5259L79.5213 59.2854L63.0821 27.6228Z" fill="white"/>
<path d="M77.8429 46.3572L80.0574 52.0198L29.7131 69.3256C29.3192 69.4611 28.8827 69.2715 28.7382 68.902L27.0466 64.577C26.9022 64.2077 27.1045 63.7985 27.4984 63.663L77.8429 46.3572Z" fill="white"/>
</svg>
